<?xml version="1.0" encoding="UTF-8" standalone="no"?>
<!-- Created with Inkscape (http://www.inkscape.org/) -->

<svg
   xmlns:dc="http://purl.org/dc/elements/1.1/"
   xmlns:cc="http://creativecommons.org/ns#"
   xmlns:rdf="http://www.w3.org/1999/02/22-rdf-syntax-ns#"
   xmlns:svg="http://www.w3.org/2000/svg"
   xmlns="http://www.w3.org/2000/svg"
   xmlns:sodipodi="http://sodipodi.sourceforge.net/DTD/sodipodi-0.dtd"
   xmlns:inkscape="http://www.inkscape.org/namespaces/inkscape"
   width="90mm"
   height="62mm"
   viewBox="0 0 90 62"
   version="1.1"
   id="svg2934"
   inkscape:version="0.92.4 (5da689c313, 2019-01-14)"
   sodipodi:docname="trash-reward.svg"
   inkscape:export-filename="/home/giovanni/design/hike/trash-reward.svg.png"
   inkscape:export-xdpi="483"
   inkscape:export-ydpi="483">
  <defs
     id="defs2928" />
  <sodipodi:namedview
     id="base"
     pagecolor="#ffffff"
     bordercolor="#666666"
     borderopacity="1.0"
     inkscape:pageopacity="0.0"
     inkscape:pageshadow="2"
     inkscape:zoom="1.979899"
     inkscape:cx="96.088983"
     inkscape:cy="100.62157"
     inkscape:document-units="mm"
     inkscape:current-layer="layer1"
     showgrid="false"
     fit-margin-top="0"
     fit-margin-left="0"
     fit-margin-right="0"
     fit-margin-bottom="0"
     inkscape:window-width="1680"
     inkscape:window-height="1013"
     inkscape:window-x="0"
     inkscape:window-y="0"
     inkscape:window-maximized="1" />
  <metadata
     id="metadata2931">
    <rdf:RDF>
      <cc:Work
         rdf:about="">
        <dc:format>image/svg+xml</dc:format>
        <dc:type
           rdf:resource="http://purl.org/dc/dcmitype/StillImage" />
        <dc:title></dc:title>
      </cc:Work>
    </rdf:RDF>
  </metadata>
  <g
     inkscape:label="Layer 1"
     inkscape:groupmode="layer"
     id="layer1"
     transform="translate(-71.416831,-127.50584)">
    <path
       style="opacity:0.2;fill:#649374;fill-opacity:1;stroke:none;stroke-width:5;stroke-linecap:round;stroke-linejoin:round;stroke-miterlimit:4;stroke-dasharray:none;stroke-opacity:1"
       d="m 125.37271,134.97414 a 22.395091,22.395091 0 0 0 -17.59582,8.58242 16.063987,16.063987 0 0 0 -8.011918,-2.15697 16.063987,16.063987 0 0 0 -16.064131,16.06414 16.063987,16.063987 0 0 0 0.15865,2.10944 c -7.08265,1.20759 -12.44266,7.34325 -12.44266,14.7805 0,8.31 6.690119,14.9996 15.000121,14.9996 H 146.4169 c 8.31,0 14.9996,-6.6896 14.9996,-14.9996 0,-7.88885 -6.02999,-14.31345 -13.75058,-14.94484 a 22.395091,22.395091 0 0 0 0.10181,-2.03967 22.395091,22.395091 0 0 0 -22.39501,-22.39502 z"
       id="rect815-7-9-8"
       inkscape:connector-curvature="0"
       inkscape:export-filename="/home/giovanni/rect917-3-7-4.png"
       inkscape:export-xdpi="483"
       inkscape:export-ydpi="483" />
    <g
       style="fill:none;fill-opacity:1;stroke:#649374;stroke-width:1.57181787;stroke-linecap:round;stroke-linejoin:round;stroke-miterlimit:4;stroke-dasharray:none;stroke-opacity:1"
       id="g1542"
       transform="matrix(1.272412,0,0,1.272412,114.93544,133.59079)"
       inkscape:export-filename="/home/giovanni/rect917-3-7-4.png"
       inkscape:export-xdpi="483"
       inkscape:export-ydpi="483">
      <circle
         id="circle1528"
         r="7"
         cy="8"
         cx="12"
         style="stroke:#649374;stroke-width:1.57181787;stroke-miterlimit:4;stroke-dasharray:none;stroke-opacity:1" />
      <polyline
         id="polyline1530"
         points="8.21 13.89 7 23 12 20 17 23 15.79 13.88"
         style="stroke:#649374;stroke-width:1.57181787;stroke-miterlimit:4;stroke-dasharray:none;stroke-opacity:1" />
    </g>
    <g
       id="humaaans/standing-13"
       transform="matrix(0.12793819,0,0,0.12793819,86.970948,128.41399)"
       style="fill:none;fill-opacity:1;fill-rule:evenodd;stroke:none;stroke-width:1;stroke-linecap:round;stroke-linejoin:round;stroke-miterlimit:4;stroke-dasharray:none;stroke-opacity:1"
       inkscape:export-filename="/home/giovanni/rect917-3-7-4.png"
       inkscape:export-xdpi="483"
       inkscape:export-ydpi="483">
      <g
         transform="translate(28,1)"
         id="humaaan-5">
        <g
           transform="rotate(-15,169.17363,-161.40329)"
           id="Head/Front/Long">
          <path
             id="Hair-Back"
             d="m 103.66577,48.385803 c 3.74211,13.514577 8.69503,44.502523 3.70042,49.33936 H 75.9527 C 75.9495,97.669493 75.9463,97.613972 75.9432,97.55859 64.300031,96.270063 55.244418,86.398422 55.244418,74.411729 V 52.277535 c 0,-12.862333 10.426981,-23.289313 23.289314,-23.289313 h 2.166448 c 11.536285,0 21.11348,8.387857 22.96559,19.397581 z"
             inkscape:connector-curvature="0"
             style="fill:#191847" />
          <g
             transform="translate(58.49409,33.282773)"
             id="Head-25"
             style="fill:#b28b67;stroke-width:1">
            <path
               id="path1376"
               d="M 8.9498924,37.029905 C 3.9584948,31.222865 0.5802124,24.106258 1.1447254,16.131896 2.7712444,-6.8444633 35.040701,-1.789957 41.317779,9.806536 47.594856,21.403029 46.848976,50.818495 38.736413,52.891112 35.501134,53.717669 28.609027,51.692936 21.594471,47.502361 l 4.402902,30.873201 H 0 Z"
               inkscape:connector-curvature="0" />
          </g>
          <path
             id="Hair-Front"
             d="m 74.471604,66.431163 c 1.197804,12.752677 0.717928,27.315956 -2.851799,30.772922 H 40.206312 C 38.456046,67.06316 55.371446,78.735076 55.371446,50.356613 c 1.05461,-1.021297 2.051131,-2.032147 3.037197,-2.903904 l -0.03492,-0.834602 C 63.813316,35.580608 70.71437,30.061859 79.07688,30.061859 c 12.543766,0 16.503097,5.785107 19.874193,10.696746 -2.520833,8.573094 -12.303528,9.844294 -20.996064,15.188138 -1.024607,-0.825098 -2.331125,-1.319607 -3.754173,-1.319607 -3.290364,0 -5.957731,2.643763 -5.957731,5.905009 0,3.261245 2.667367,5.905008 5.957731,5.905008 0.09074,0 0.181014,-0.002 0.270768,-0.006 z"
             inkscape:connector-curvature="0"
             style="fill:#191847" />
        </g>
        <g
           transform="translate(0,218.45249)"
           id="Bottom/Standing/Skirt">
          <path
             id="Skirt-Shadow"
             d="m 105.51448,105.84111 c 25.98584,7.24021 48.40563,10.86031 67.25938,10.86031 18.85375,0 36.36599,-5.5749 52.53671,-16.724688 -25.42951,-7.431413 -46.37183,-11.14712 -62.82699,-11.14712 -16.45515,0 -35.44485,5.670499 -56.9691,17.011498 z"
             inkscape:connector-curvature="0"
             style="fill:#d89501;fill-opacity:1" />
          <path
             id="Leg-4"
             d="m 195.26934,127.13734 c -0.25056,-0.37522 -0.46217,-0.7834 -0.63001,-1.22554 C 191.16587,116.76145 135.5296,18.047546 129.98687,0 h 62.63859 c 4.21422,13.721804 23.182,99.832665 25.8514,117.01305 8.42242,27.1002 25.76334,114.86785 27.97705,120.94812 2.32879,6.39635 -10.77452,13.05969 -14.26625,5.19617 -5.55592,-12.51217 -18.79402,-47.13315 -24.6884,-68.27247 -5.52596,-19.81807 -10.02557,-37.64751 -12.22992,-47.74753 z"
             inkscape:connector-curvature="0"
             style="fill:#997659" />
          <path
             id="path1383"
             d="m 144.02226,139.18945 c -25.43599,6.40398 -118.475477,17.98124 -124.860254,19.79711 -6.567944,1.86796 -12.3267741,-11.61778 -4.208441,-14.53902 12.917639,-4.64818 48.511582,-15.38801 70.092319,-19.77072 17.358236,-3.52518 33.197846,-6.40173 43.832136,-8.08621 C 127.97711,86.834186 123.8588,15.42333 126.55812,0 h 55.42349 c -2.58846,14.789936 -24.4699,122.70614 -28.53688,133.50825 -1.29066,3.85642 -5.14172,5.56067 -9.42247,5.6812 z"
             inkscape:connector-curvature="0"
             style="fill:#b28b67" />
          <g
             transform="rotate(80,-58.299031,91.62237)"
             id="Accessories/Shoe/Flat-Sneaker-7"
             style="fill:#e4e4e4">
            <path
               id="shoe-4"
               d="m 2.9010163,27.515971 c -1.2118616,3.235034 -1.8177924,5.655587 -1.8177924,7.261659 0,1.953362 0.3254158,4.803804 0.9762475,8.551325 2.2660378,0 22.6313016,0 61.0957906,0 1.587663,-5.248753 0.671171,-8.082386 -2.749474,-8.500899 -3.420645,-0.418513 -6.262233,-0.796396 -8.524764,-1.13365 L 23.484286,21.034998 c -0.54641,-0.243592 -1.186833,0.0019 -1.430425,0.5483 -0.0042,0.0093 -0.0082,0.01875 -0.0121,0.02822 l -1.825321,4.427775 c -3.166623,1.477471 -5.739833,2.216206 -7.719629,2.216206 -1.608538,0 -3.8299428,-0.649637 -6.6642139,-1.94891 l 5.9e-6,-1.3e-5 c -1.0876658,-0.498603 -2.3735905,-0.02107 -2.8721933,1.066593 -0.021491,0.04688 -0.0413,0.09451 -0.059391,0.142806 z"
               inkscape:connector-curvature="0" />
          </g>
          <g
             transform="translate(225.31057,214.72927)"
             id="g1389"
             style="fill:#e4e4e4">
            <path
               id="path1387"
               d="m 2.9010163,27.515971 c -1.2118616,3.235034 -1.8177924,5.655587 -1.8177924,7.261659 0,1.953362 0.3254158,4.803804 0.9762475,8.551325 2.2660378,0 22.6313016,0 61.0957906,0 1.587663,-5.248753 0.671171,-8.082386 -2.749474,-8.500899 -3.420645,-0.418513 -6.262233,-0.796396 -8.524764,-1.13365 L 23.484286,21.034998 c -0.54641,-0.243592 -1.186833,0.0019 -1.430425,0.5483 -0.0042,0.0093 -0.0082,0.01875 -0.0121,0.02822 l -1.825321,4.427775 c -3.166623,1.477471 -5.739833,2.216206 -7.719629,2.216206 -1.608538,0 -3.8299428,-0.649637 -6.6642139,-1.94891 l 5.9e-6,-1.3e-5 c -1.0876658,-0.498603 -2.3735905,-0.02107 -2.8721933,1.066593 -0.021491,0.04688 -0.0413,0.09451 -0.059391,0.142806 z"
               inkscape:connector-curvature="0" />
          </g>
          <path
             id="Skirt"
             d="m 126.7372,0 c 24.42327,-6.9606155 47.53205,-6.9606155 69.32632,0 7.58257,34.461855 26.00706,48.139792 29.24705,100.97555 C 188.48096,119.20466 142.98555,87.974751 105.07272,105.7518 94.240478,80.88615 109.40561,21.003024 126.7372,0 Z"
             inkscape:connector-curvature="0"
             style="fill:#fec13a;fill-opacity:1" />
        </g>
        <g
           transform="rotate(-10,755.731,24.08949)"
           id="Body/Pointing-Forward-4">
          <path
             id="Skin-30"
             d="m 171.84051,46.02606 37.59847,-20.49109 c 6.25239,-7.388166 12.41274,-13.126112 18.48105,-17.2138379 1.85428,-0.7703177 5.09694,-1.2365689 2.06443,4.1193179 -3.0325,5.355886 -5.98018,11.125186 -4.43524,12.775219 1.54495,1.650033 5.3974,-0.65499 7.24049,2.086553 1.22873,1.827696 -5.35288,4.71494 -19.74483,8.661734 l -27.31987,24.891048 z m 58.88618,17.288897 16.5154,-9.027993 c 2.31734,-8.774325 5.08744,-13.188985 8.3103,-13.243979 2.47583,-1.146303 -1.83581,9.940876 2.85758,8.979398 4.69339,-0.961478 16.1486,-9.439165 18.12239,-7.717874 2.92009,2.546539 0.31636,10.365888 -2.75146,14.255596 -5.73375,7.269858 -10.48105,9.75593 -22.21474,13.011457 -6.13498,1.702157 -12.76798,5.113985 -19.89899,10.235484 z"
             inkscape:connector-curvature="0"
             style="fill:#997659" />
          <path
             transform="rotate(-9,179.70675,47.160725)"
             id="Sleeve-7"
             d="m 154.74361,37.436545 c 13.02892,1.923414 30.80713,1.936947 51.16613,-6.821721 l 4.7137,17.28007 c -14.76273,10.584867 -34.35348,18.099866 -49.97935,15.175361 -12.31404,-2.30467 -16.2776,-18.193323 -5.90048,-25.63371 z"
             inkscape:connector-curvature="0"
             style="fill:#2026a2" />
          <path
             id="Clothes-8"
             d="m 171.26232,67.649569 c 13.98094,3.469582 37.42612,-0.622014 70.33553,-12.274785 8.16289,16.804377 11.9364,28.784608 11.3205,35.940695 -28.23142,14.674361 -52.42819,21.216911 -72.3631,21.648811 0.63351,11.77036 -0.80625,22.97013 -5.64283,33.20373 -9.94318,21.03853 -68.16606,1.5545 -87.742374,5.38944 C 74.910782,111.94007 98.61444,95.839727 98.633512,70.490215 98.654398,42.729798 121.05505,0 124.35085,0 h 30.05594 c 1.65837,21.200996 10.00537,44.566331 16.85553,67.649569 z"
             inkscape:connector-curvature="0"
             style="fill:#1f28cf" />
        </g>
      </g>
    </g>
    <rect
       style="fill:#000000;fill-opacity:0;stroke:none;stroke-width:4.54992533;stroke-linecap:round;stroke-linejoin:round;stroke-miterlimit:4;stroke-dasharray:none;stroke-opacity:1"
       id="rect917-3-7-4"
       width="23.812498"
       height="28.253719"
       x="113.83562"
       y="158.60703"
       inkscape:export-filename="/home/giovanni/rect917-3-7-4.png"
       inkscape:export-xdpi="483"
       inkscape:export-ydpi="483" />
  </g>
</svg>
