<?xml version="1.0" encoding="UTF-8" standalone="no"?>
<!-- Created with Inkscape (http://www.inkscape.org/) -->

<svg
   xmlns:dc="http://purl.org/dc/elements/1.1/"
   xmlns:cc="http://creativecommons.org/ns#"
   xmlns:rdf="http://www.w3.org/1999/02/22-rdf-syntax-ns#"
   xmlns:svg="http://www.w3.org/2000/svg"
   xmlns="http://www.w3.org/2000/svg"
   xmlns:sodipodi="http://sodipodi.sourceforge.net/DTD/sodipodi-0.dtd"
   xmlns:inkscape="http://www.inkscape.org/namespaces/inkscape"
   width="90mm"
   height="62mm"
   viewBox="0 0 89.999999 62"
   version="1.1"
   id="svg3626"
   inkscape:version="0.92.4 (5da689c313, 2019-01-14)"
   sodipodi:docname="trash-picking.svg"
   inkscape:export-filename="/home/giovanni/design/hike/trash-picking.svg.png"
   inkscape:export-xdpi="483"
   inkscape:export-ydpi="483">
  <defs
     id="defs3620" />
  <sodipodi:namedview
     id="base"
     pagecolor="#ffffff"
     bordercolor="#666666"
     borderopacity="1.0"
     inkscape:pageopacity="0.0"
     inkscape:pageshadow="2"
     inkscape:zoom="1.979899"
     inkscape:cx="0.93577323"
     inkscape:cy="128.41445"
     inkscape:document-units="mm"
     inkscape:current-layer="layer1"
     showgrid="false"
     fit-margin-top="0"
     fit-margin-left="0"
     fit-margin-right="0"
     fit-margin-bottom="0"
     inkscape:window-width="1680"
     inkscape:window-height="1013"
     inkscape:window-x="0"
     inkscape:window-y="0"
     inkscape:window-maximized="1" />
  <metadata
     id="metadata3623">
    <rdf:RDF>
      <cc:Work
         rdf:about="">
        <dc:format>image/svg+xml</dc:format>
        <dc:type
           rdf:resource="http://purl.org/dc/dcmitype/StillImage" />
        <dc:title></dc:title>
      </cc:Work>
    </rdf:RDF>
  </metadata>
  <g
     inkscape:label="Layer 1"
     inkscape:groupmode="layer"
     id="layer1"
     transform="translate(-43.446593,-85.446357)">
    <path
       style="opacity:0.2;fill:#649374;fill-opacity:1;stroke:none;stroke-width:5;stroke-linecap:round;stroke-linejoin:round;stroke-miterlimit:4;stroke-dasharray:none;stroke-opacity:1"
       d="m 97.402474,92.886894 a 22.39509,22.39509 0 0 0 -17.595826,8.582426 16.063987,16.063987 0 0 0 -8.011914,-2.15698 16.063987,16.063987 0 0 0 -16.064135,16.06414 16.063987,16.063987 0 0 0 0.158647,2.10943 c -7.082642,1.20761 -12.442653,7.34326 -12.442653,14.78049 0,8.31 6.690119,14.99961 15.000118,14.99961 h 59.999949 c 8.31,0 14.9996,-6.68961 14.9996,-14.99961 0,-7.88883 -6.02999,-14.31344 -13.75058,-14.94482 a 22.39509,22.39509 0 0 0 0.1018,-2.03967 22.39509,22.39509 0 0 0 -22.395006,-22.395016 z"
       id="rect815"
       inkscape:connector-curvature="0"
       inkscape:export-filename="/home/giovanni/Short-1.png"
       inkscape:export-xdpi="483"
       inkscape:export-ydpi="483" />
    <polyline
       id="polyline837"
       points="3 6 5 6 21 6"
       style="fill:none;fill-opacity:1;stroke:#649374;stroke-width:1.33869827;stroke-linecap:round;stroke-linejoin:round;stroke-miterlimit:4;stroke-dasharray:none;stroke-opacity:1"
       transform="matrix(1.4939886,0,0,1.4939886,82.369699,113.28057)" />
    <path
       id="path839"
       d="m 110.75548,122.24451 v 20.91584 a 2.9879772,2.9879772 0 0 1 -2.98798,2.98797 H 92.827619 a 2.9879772,2.9879772 0 0 1 -2.987979,-2.98797 v -20.91584 m 4.481968,0 v -2.98798 a 2.9879772,2.9879772 0 0 1 2.987976,-2.98798 h 5.975956 a 2.9879772,2.9879772 0 0 1 2.98798,2.98798 v 2.98798"
       inkscape:connector-curvature="0"
       style="fill:none;fill-opacity:1;stroke:#649374;stroke-width:1.99999988;stroke-linecap:round;stroke-linejoin:round;stroke-miterlimit:4;stroke-dasharray:none;stroke-opacity:1" />
    <line
       id="line841"
       y2="138.67838"
       x2="97.309586"
       y1="129.71445"
       x1="97.309586"
       style="fill:none;fill-opacity:1;stroke:#649374;stroke-width:1.99999988;stroke-linecap:round;stroke-linejoin:round;stroke-miterlimit:4;stroke-dasharray:none;stroke-opacity:1" />
    <line
       id="line843"
       y2="138.67838"
       x2="103.28554"
       y1="129.71445"
       x1="103.28554"
       style="fill:none;fill-opacity:1;stroke:#649374;stroke-width:1.99999988;stroke-linecap:round;stroke-linejoin:round;stroke-miterlimit:4;stroke-dasharray:none;stroke-opacity:1" />
    <g
       id="humaaans/standing-3"
       transform="matrix(0.13288388,0,0,0.13288388,50.240214,84.86355)"
       style="fill:none;fill-rule:evenodd;stroke:none;stroke-width:1"
       inkscape:export-filename="/home/giovanni/Short-1.png"
       inkscape:export-xdpi="483"
       inkscape:export-ydpi="483">
      <g
         transform="translate(24,10)"
         id="humaaan-12">
        <g
           transform="rotate(29.636233,113.12486,372.91085)"
           id="Head/Front/Pony">
          <g
             transform="translate(56.316359,32.329762)"
             id="Head"
             style="fill:#d4a181;stroke-width:1">
            <path
               id="path863"
               d="M 8.6166886,35.9696 C 3.8111203,30.328837 0.55861114,23.416005 1.1021073,15.669979 2.6680712,-6.6484806 33.736139,-1.7387038 39.779521,9.525738 45.822903,20.79018 45.104792,49.363371 37.294259,51.37664 34.179429,52.17953 27.543915,50.212773 20.790511,46.14219 l 4.238982,29.989185 H 0 Z"
               inkscape:connector-curvature="0" />
          </g>
        </g>
        <g
           transform="translate(0,211.70655)"
           id="Bottom/Standing/Sweatpants">
          <polygon
             points="189.66115,230.47992 207.69598,230.47992 189.69329,9.9475983e-14 133.49063,9.9475983e-14 171.69277,131.64148 "
             id="Leg"
             style="fill:#ba8b72" />
          <path
             id="path869"
             d="m 116.3222,0 c 2.66562,68.387067 1.61434,105.68723 1.01774,111.90049 -0.5966,6.21327 -3.98352,47.82553 -27.063056,120.66522 H 109.0347 C 139.59975,162.68847 150.26971,121.07621 153.77529,111.90049 157.28087,102.72478 167.63441,65.424613 182.75012,0 Z"
             inkscape:connector-curvature="0"
             style="fill:#d4a181" />
          <path
             id="Pant"
             d="m 132.67054,0 c 9.93697,45.298194 27.12367,117.60562 51.5601,216.92227 h 26.37801 C 212.55696,114.98323 204.26892,47.890279 189.91609,0 Z"
             inkscape:connector-curvature="0"
             style="fill:#69a1ac" />
          <path
             id="path872"
             d="m 116.18891,0 c 2.61062,68.387067 -4.15497,135.76128 -25.112312,217.98703 H 119.22047 C 149.84171,149.15269 171.78894,82.110942 186.78841,0 Z"
             inkscape:connector-curvature="0"
             style="fill:#89c5cc" />
          <g
             transform="translate(87.603226,207.53621)"
             id="Accessories/Shoe/Flat-Simple"
             style="fill:#191847">
            <path
               id="Shoe"
               d="M 0,38.587135 1.0349932,21.900807 c 6.0597396,1.772322 13.6496898,1.077059 22.7698498,-2.085792 9.806373,6.946323 22.151313,11.689466 37.034821,14.229431 l 2e-6,-1.2e-5 c 1.135541,0.193787 1.898982,1.27142 1.705195,2.40696 -0.01255,0.07354 -0.02903,0.146345 -0.04938,0.218114 l -1.430879,5.046314 H 23.804843 2.0699864 Z"
               inkscape:connector-curvature="0" />
          </g>
          <g
             transform="translate(185.63541,207.53621)"
             id="g878"
             style="fill:#191847">
            <path
               id="path876"
               d="M 0,38.587135 1.0349932,21.900807 c 6.0597396,1.772322 13.6496898,1.077059 22.7698498,-2.085792 9.806373,6.946323 22.151313,11.689466 37.034821,14.229431 l 2e-6,-1.2e-5 c 1.135541,0.193787 1.898982,1.27142 1.705195,2.40696 -0.01255,0.07354 -0.02903,0.146345 -0.04938,0.218114 l -1.430879,5.046314 H 23.804843 2.0699864 Z"
               inkscape:connector-curvature="0" />
          </g>
        </g>
        <g
           transform="rotate(24.636233,-64.045565,245.66399)"
           id="Body/Pointing-Forward">
          <path
             id="Skin"
             d="M 165.4429,44.531882 201.64158,24.70601 c 6.01962,-7.148319 11.95062,-12.69999 17.793,-16.6550129 1.78525,-0.7453103 4.90719,-1.1964253 1.98758,3.9855889 -2.91961,5.182015 -5.75754,10.764022 -4.27012,12.360488 1.48743,1.596467 5.19646,-0.633727 6.97093,2.018816 1.18298,1.768362 -5.15359,4.561876 -19.00974,8.380541 l -26.30275,24.082993 z m 56.69385,16.727635 15.90053,-8.73491 c 2.23107,-8.489479 4.89804,-12.760822 8.00092,-12.814031 2.38365,-1.10909 -1.76746,9.618159 2.75119,8.687894 4.51865,-0.930265 15.54738,-9.132734 17.44769,-7.467323 2.81138,2.463868 0.30458,10.029372 -2.64902,13.792805 -5.52029,7.033852 -10.09085,9.439217 -21.38769,12.589058 -5.90657,1.646898 -12.29262,4.947966 -19.15815,9.903201 z"
             inkscape:connector-curvature="0"
             style="fill:#d4a181" />
          <path
             transform="rotate(-9,173.01458,45.624657)"
             id="Sleeve"
             d="m 148.98596,36.240936 c 12.54396,1.851154 29.66235,1.851154 49.2722,-6.637147 l 4.52604,16.713608 C 188.56157,56.568277 169.69236,63.852861 154.64858,61.035145 142.79324,58.81463 138.98849,43.446554 148.98596,36.240936 Z"
             inkscape:connector-curvature="0"
             style="fill:#2026a2" />
          <path
             id="Clothes"
             d="m 164.88624,65.453412 c 13.46043,3.356945 36.03274,-0.601821 67.71694,-11.8763 7.85899,16.258844 11.492,27.850152 10.89904,34.773926 -27.18037,14.197972 -50.4763,20.528132 -69.66903,20.946012 0.60992,11.38825 -0.77623,22.22443 -5.43275,32.12581 -9.573,20.35554 -65.62824,1.50404 -84.475728,5.21448 C 72.121859,108.30608 94.943032,92.728412 94.961394,68.201839 94.981503,41.342629 116.54818,0 119.72128,0 h 28.93696 c 1.59662,20.512733 9.63286,43.119541 16.228,65.453412 z"
             inkscape:connector-curvature="0"
             style="fill:#1f28cf" />
        </g>
      </g>
    </g>
    <rect
       style="fill:#000000;fill-opacity:0;stroke:none;stroke-width:4.54992533;stroke-linecap:round;stroke-linejoin:round;stroke-miterlimit:4;stroke-dasharray:none;stroke-opacity:1"
       id="rect917"
       width="23.812498"
       height="28.253719"
       x="85.865364"
       y="116.51976"
       inkscape:export-filename="/home/giovanni/Short-1.png"
       inkscape:export-xdpi="483"
       inkscape:export-ydpi="483" />
    <g
       id="Head/Front/Short-1"
       transform="matrix(0.11940424,0.0698075,-0.0698075,0.11940424,80.0738,85.225966)"
       style="fill:none;fill-rule:evenodd;stroke:none;stroke-width:1"
       inkscape:export-filename="/home/giovanni/Short-1.png"
       inkscape:export-xdpi="483"
       inkscape:export-ydpi="483">
      <g
         transform="translate(54,31)"
         id="Head-6"
         style="fill:#b28b67" />
      <path
         id="Hair-1"
         d="m 79.627748,38.397574 c -3.25687,1.821812 -5.574681,5.235551 -8.364763,9.713361 -0.679536,-0.26709 -1.419602,-0.41377 -2.193927,-0.41377 -3.313709,0 -6,2.686292 -6,6 0,1.682218 0.692292,3.202743 1.807515,4.292214 -1.388319,1.959602 -2.944226,4.006669 -4.727129,6.118976 C 53.496096,60.116617 48.547497,48.48257 54.900168,37.251413 60.365953,14.754591 91.337411,28.718124 97.296063,24.923942 98.598508,33.08765 94.397505,39.670224 79.627748,38.397574 Z"
         inkscape:connector-curvature="0"
         style="fill:#191847" />
    </g>
  </g>
</svg>
