<?xml version="1.0" encoding="UTF-8" standalone="no"?>
<!-- Created with Inkscape (http://www.inkscape.org/) -->

<svg
   xmlns:dc="http://purl.org/dc/elements/1.1/"
   xmlns:cc="http://creativecommons.org/ns#"
   xmlns:rdf="http://www.w3.org/1999/02/22-rdf-syntax-ns#"
   xmlns:svg="http://www.w3.org/2000/svg"
   xmlns="http://www.w3.org/2000/svg"
   xmlns:sodipodi="http://sodipodi.sourceforge.net/DTD/sodipodi-0.dtd"
   xmlns:inkscape="http://www.inkscape.org/namespaces/inkscape"
   width="90mm"
   height="62mm"
   viewBox="0 0 90 62"
   version="1.1"
   id="svg2265"
   inkscape:version="0.92.4 (5da689c313, 2019-01-14)"
   sodipodi:docname="trash-post.svg">
  <defs
     id="defs2259" />
  <sodipodi:namedview
     id="base"
     pagecolor="#ffffff"
     bordercolor="#666666"
     borderopacity="1.0"
     inkscape:pageopacity="0.0"
     inkscape:pageshadow="2"
     inkscape:zoom="1.979899"
     inkscape:cx="92.27004"
     inkscape:cy="83.724622"
     inkscape:document-units="mm"
     inkscape:current-layer="layer1"
     showgrid="false"
     fit-margin-top="0"
     fit-margin-left="0"
     fit-margin-right="0"
     fit-margin-bottom="0"
     inkscape:window-width="1680"
     inkscape:window-height="1013"
     inkscape:window-x="0"
     inkscape:window-y="0"
     inkscape:window-maximized="1" />
  <metadata
     id="metadata2262">
    <rdf:RDF>
      <cc:Work
         rdf:about="">
        <dc:format>image/svg+xml</dc:format>
        <dc:type
           rdf:resource="http://purl.org/dc/dcmitype/StillImage" />
        <dc:title></dc:title>
      </cc:Work>
    </rdf:RDF>
  </metadata>
  <g
     inkscape:label="Layer 1"
     inkscape:groupmode="layer"
     id="layer1"
     transform="translate(-100.89897,-116.11339)">
    <path
       style="opacity:0.2;fill:#649374;fill-opacity:1;stroke:none;stroke-width:5;stroke-linecap:round;stroke-linejoin:round;stroke-miterlimit:4;stroke-dasharray:none;stroke-opacity:1"
       d="m 154.85486,123.73427 a 22.39509,22.39509 0 0 0 -17.59583,8.58242 16.063987,16.063987 0 0 0 -8.01192,-2.15697 16.063987,16.063987 0 0 0 -16.06413,16.06414 16.063987,16.063987 0 0 0 0.15865,2.10943 c -7.08265,1.2076 -12.44266,7.34325 -12.44266,14.78049 0,8.31 6.69012,14.99961 15.00012,14.99961 h 59.99996 c 8.31,0 14.9996,-6.68961 14.9996,-14.99961 0,-7.88884 -6.02999,-14.31344 -13.75058,-14.94482 a 22.39509,22.39509 0 0 0 0.1018,-2.03967 22.39509,22.39509 0 0 0 -22.39501,-22.39502 z"
       id="rect815-7"
       inkscape:connector-curvature="0"
       inkscape:export-filename="/home/giovanni/sitting-5.png"
       inkscape:export-xdpi="483"
       inkscape:export-ydpi="483" />
    <rect
       style="fill:#000000;fill-opacity:0;stroke:none;stroke-width:4.54992533;stroke-linecap:round;stroke-linejoin:round;stroke-miterlimit:4;stroke-dasharray:none;stroke-opacity:1"
       id="rect917-3"
       width="23.812498"
       height="28.253719"
       x="143.31775"
       y="147.36714"
       inkscape:export-filename="/home/giovanni/sitting-5.png"
       inkscape:export-xdpi="483"
       inkscape:export-ydpi="483" />
    <g
       style="fill:none;stroke:#649374;stroke-width:1.44243026;stroke-linecap:round;stroke-linejoin:round;stroke-miterlimit:4;stroke-dasharray:none;stroke-opacity:1"
       id="g1045"
       transform="matrix(1.3865488,0,0,1.3865488,135.30311,147.92595)"
       inkscape:export-filename="/home/giovanni/sitting-5.png"
       inkscape:export-xdpi="483"
       inkscape:export-ydpi="483">
      <rect
         id="rect1028"
         ry="2"
         rx="2"
         height="18"
         width="18"
         y="3"
         x="3"
         style="stroke:#649374;stroke-width:1.44243026;stroke-miterlimit:4;stroke-dasharray:none;stroke-opacity:1" />
      <circle
         id="circle1030"
         r="1.5"
         cy="8.5"
         cx="8.5"
         style="stroke:#649374;stroke-width:1.44243026;stroke-miterlimit:4;stroke-dasharray:none;stroke-opacity:1" />
      <polyline
         id="polyline1032"
         points="21 15 16 10 5 21"
         style="stroke:#649374;stroke-width:1.44243026;stroke-miterlimit:4;stroke-dasharray:none;stroke-opacity:1" />
    </g>
    <g
       id="humaaans/sitting-5"
       transform="matrix(0.26458333,0,0,0.26458333,26.499898,77.531877)"
       style="fill:none;fill-rule:evenodd;stroke:none;stroke-width:1"
       inkscape:export-filename="/home/giovanni/sitting-5.png"
       inkscape:export-xdpi="483"
       inkscape:export-ydpi="483">
      <g
         transform="matrix(-1,0,0,1,340,24)"
         id="A-Human/Sitting">
        <g
           transform="matrix(0.66175809,0,0,0.59501601,24.029069,409.79084)"
           id="Bottom/Sitting/Skinny-Jeans-1">
          <g
             id="humaaans/sitting-1"
             transform="matrix(-1.5111262,0,0,1.6806271,392.03601,-283.00502)"
             style="fill:none;fill-rule:evenodd;stroke:none;stroke-width:1">
            <g
               transform="matrix(-1,0,0,1,340,24)"
               id="A-Human/Sitting-9">
              <g
                 id="g1189"
                 transform="translate(-249.19978,198.49226)">
                <g
                   id="Head/Front/Airy"
                   transform="matrix(0.52924929,0,0,0.52924929,160.89055,-336.79338)">
                  <g
                     style="fill:#b28b67;stroke-width:1"
                     id="Head-2"
                     transform="translate(54,31)">
                    <path
                       inkscape:connector-curvature="0"
                       d="M 8.2622739,34.490127 C 3.6543643,29.081376 0.53563479,22.452877 1.0567763,15.025454 2.5583302,-6.3750206 32.348531,-1.6671889 38.143341,9.1339329 43.938152,19.935055 43.249578,47.332996 35.760301,49.263458 32.773588,50.033323 26.411001,48.147461 19.935372,44.244306 L 24,73 H 0 Z"
                       id="path1118" />
                  </g>
                  <path
                     style="fill:#191847"
                     inkscape:connector-curvature="0"
                     d="m 78.46395,27.685257 c -3.16313,-0.518719 -11.679999,-0.875353 -13.250662,-0.875123 -1.003727,0 -2.091462,0.229314 -2.685941,-0.692316 C 62.040518,25.363109 62.218861,24.086687 62.07357,23.210874 61.904866,22.193467 61.665239,21.189183 61.422857,20.187431 60.733124,17.336894 59.690147,14.624959 58.230806,12.078793 55.492532,7.3018818 51.481065,3.5601063 46.416751,1.3827761 40.824292,-1.0213354 34.495965,-1.5718268 28.480485,-1.0841895 22.043133,-0.56247752 16.215866,1.5625894 10.137955,3.5624086 4.346036,5.4680618 -1.7203989,6.2181667 -7.7781117,5.2875578 -13.881501,4.3500418 -18.493185,1.0420286 -23.641277,-2.097683 c -5.270201,-3.2143076 -11.293025,-5.3165813 -17.523343,-4.8333185 -5.81579,0.4512601 -11.175967,2.8526088 -15.985045,6.06046986 -4.499445,3.00134044 -8.212066,6.61234264 -10.308119,11.69454464 -2.254887,5.466925 -2.252821,11.467764 1.45521,16.299241 5.374636,7.003281 15.352464,8.814308 23.653587,8.634264 4.801504,-0.103836 9.517165,-0.98034 14.05035,-2.574715 6.045548,-2.126449 11.269843,-5.730544 16.925652,-8.654756 2.654266,-1.372199 5.3978186,-2.499198 8.2735796,-3.311006 2.790606,-0.788094 5.5392083,-1.149562 8.0658566,0.536217 2.6728579,1.783398 5.0679868,3.535255 8.1257638,4.651663 2.933372,1.071052 6.040498,1.670123 9.165756,1.645949 6.080666,-0.04697 12.0748,-1.94157 17.980565,-3.210624 4.815964,-1.034675 9.968876,-2.065897 14.878717,-1.071283 2.048771,0.415114 5.041362,1.272047 5.781361,3.401259 -12.454439,2.257221 -17.345907,17.659927 -13.834811,28.966987 1.894986,6.102833 13.286009,13.236981 17.714988,10.028629 2.805886,-2.032583 1.102425,-4.700996 0,-6.462522 -2.111202,-3.3734 -2.833528,-7.706649 1.073045,-10.055274 3.369706,-2.025605 6.91272,2.78467 6.979743,2.779375 0.926147,-0.07298 8.928861,-4.598871 14.442586,-11.203288 5.43931,0.322437 6.264532,-3.264104 4.965731,-6.197221 -1.2988,-2.933116 -9.405496,-6.62447 -13.775946,-7.341651 z"
                     id="hair-2" />
                </g>
                <g
                   id="Bottom/Sitting/Sweat-Pants"
                   transform="translate(0,187)">
                  <path
                     style="fill:#b28b67;stroke-width:0.52924931"
                     inkscape:connector-curvature="0"
                     d="m 261.18819,-338.73616 c -6.78116,-15.00861 -11.68522,-28.0775 -13.6537,-34.97268 -3.3705,-11.80622 -5.93458,-22.19501 -6.58264,-26.07467 -1.54538,-9.25157 11.88797,-9.79031 13.66358,-5.19244 2.68745,6.95906 7.37913,29.82361 13.01655,64.35967 z m -78.65751,-47.10123 c 6.2217,-2.45927 28.00978,-10.15559 38.51817,-12.33273 3.01969,-0.62563 5.94646,-1.2069 8.69814,-1.73221 8.17897,-1.56142 12.41644,13.19374 4.5391,14.32746 -19.61769,2.8234 -47.42908,5.73903 -49.80913,6.06624 -3.33573,0.45858 -5.85643,-4.78318 -1.94628,-6.32876 z"
                     id="Skin-8" />
                  <path
                     style="fill:#1f28cf;stroke-width:0.52924931"
                     inkscape:connector-curvature="0"
                     d="M 234.76693,-403.96274 201.1135,-421.0943 v -3.72947 h 4.00228 c 32.55819,8.29637 49.1954,13.61318 49.91163,15.95043 0.008,0.0251 0.0148,0.0503 0.0212,0.0755 0.0164,0.0215 0.0325,0.0431 0.0483,0.0649 6.45235,8.87383 10.31663,52.19655 11.58496,55.44041 l -12.36416,1.84456 c -4.72964,-17.53831 -19.86155,-29.75613 -19.45959,-50.76155 -0.10854,-0.61617 -0.13596,-1.2005 -0.0912,-1.75327 z"
                     id="Leg-Back" />
                  <path
                     style="fill:#2b44ff;stroke-width:0.52924931"
                     inkscape:connector-curvature="0"
                     d="m 203.90961,-393.78834 c -3.07921,-0.61639 -5.91483,-1.16651 -8.34122,-1.59209 -15.67287,-2.74901 -20.24322,-11.13859 -17.54099,-29.44334 h 28.87702 c 4.7171,1.35505 29.23164,11.63546 41.95087,17.1034 8.41824,3.61897 5.76453,16.66508 0.99728,20.06021 -0.0259,0.20829 -0.11168,0.34977 -0.26446,0.41309 -25.64446,10.62873 -45.93158,5.05187 -52.70861,6.83376 l -3.13468,-9.88836 z"
                     id="Leg-Front" />
                  <g
                     style="fill:#e4e4e4"
                     id="Accessories/Shoe/Flat-Sneaker"
                     transform="matrix(0.23200762,0.47568611,-0.47568611,0.23200762,196.11995,-394.57655)">
                    <path
                       inkscape:connector-curvature="0"
                       d="M 2.6781318,25.401924 C 1.5593773,28.388411 1,30.622993 1,32.105671 1,33.908957 1.3004142,36.5404 1.9012426,40 c 2.0919386,0 20.8925424,0 56.4018124,0 1.465683,-4.845493 0.619606,-7.461418 -2.538232,-7.847777 -3.157838,-0.386358 -5.781107,-0.735209 -7.869809,-1.046552 L 21.679993,19.418883 c -0.50443,-0.224877 -1.095649,0.0017 -1.320526,0.506174 -0.0038,0.0086 -0.0076,0.01731 -0.01117,0.02605 l -1.685082,4.08759 c -2.923332,1.363957 -5.298842,2.045936 -7.126532,2.045936 -1.484954,0 -3.5356885,-0.599726 -6.1522031,-1.799176 l 5.5e-6,-1.2e-5 c -1.0041007,-0.460295 -2.1912281,-0.01945 -2.6515233,0.984647 -0.019839,0.04328 -0.038127,0.08725 -0.054828,0.131834 z"
                       id="shoe" />
                  </g>
                  <g
                     style="fill:#e4e4e4"
                     id="g1132"
                     transform="matrix(0.52924929,0,0,0.52924929,256.68467,-354.96286)">
                    <path
                       inkscape:connector-curvature="0"
                       d="M 2.6781318,25.401924 C 1.5593773,28.388411 1,30.622993 1,32.105671 1,33.908957 1.3004142,36.5404 1.9012426,40 c 2.0919386,0 20.8925424,0 56.4018124,0 1.465683,-4.845493 0.619606,-7.461418 -2.538232,-7.847777 -3.157838,-0.386358 -5.781107,-0.735209 -7.869809,-1.046552 L 21.679993,19.418883 c -0.50443,-0.224877 -1.095649,0.0017 -1.320526,0.506174 -0.0038,0.0086 -0.0076,0.01731 -0.01117,0.02605 l -1.685082,4.08759 c -2.923332,1.363957 -5.298842,2.045936 -7.126532,2.045936 -1.484954,0 -3.5356885,-0.599726 -6.1522031,-1.799176 l 5.5e-6,-1.2e-5 c -1.0041007,-0.460295 -2.1912281,-0.01945 -2.6515233,0.984647 -0.019839,0.04328 -0.038127,0.08725 -0.054828,0.131834 z"
                       id="path1130" />
                  </g>
                </g>
                <g
                   id="Body/Jacket-2"
                   transform="matrix(0.52924929,0,0,0.52924929,129.1356,-293.39494)">
                  <path
                     style="fill:#b28b67"
                     inkscape:connector-curvature="0"
                     d="m 198,77.617088 36.23457,-15.912914 c 6.34745,-6.325152 12.47682,-11.13256 18.3881,-14.422224 1.76759,-0.562741 4.78743,-0.732751 1.5655,3.973218 -3.22194,4.70597 -6.39928,9.800846 -5.11188,11.450128 1.2874,1.649283 5.01672,-0.171076 6.49005,2.510981 0.98223,1.788037 -5.30405,3.926903 -18.85885,6.416599 L 209.56994,92.439287 Z M 51.508283,82 72,86.065845 C 51.392082,124.47106 40.340426,144.82584 38.845032,147.1302 c -3.364638,5.18481 -0.225363,14.68704 0.934272,19.69098 -7.2749,1.69344 -4.405903,-9.25617 -13.612148,-6.97 -8.403034,2.08672 -15.527793,7.44199 -23.3632776,0.21956 -0.9633268,-0.88796 -1.6685276,-3.66345 1.6159415,-5.08699 C 12.60263,151.43719 24.692043,144.79634 26.652342,142.2181 29.325561,138.7022 37.610874,118.6295 51.508283,82 Z"
                     id="path1135" />
                  <path
                     style="fill:#db2721"
                     inkscape:connector-curvature="0"
                     d="m 123.28025,9.8771803 8.48495,-2.2311707 c 20.35493,16.5590654 31.83717,59.6156624 44.84747,64.3096364 12.30071,4.437963 28.59592,-2.323636 47.89049,-11.216614 l 7.29289,13.096311 C 215.40983,95.000024 178.29861,114.91655 161.84294,106.83981 135.53374,93.926787 125.0468,40.501408 123.28025,9.8771803 Z"
                     id="Coat-Back"
                     transform="rotate(5,177.53815,58.161768)" />
                  <path
                     style="fill:#dde3e9"
                     inkscape:connector-curvature="0"
                     d="m 90,114 c 34.67176,0 60.17557,0 76.51145,0 3.49618,0 2.83739,-5.04836 2.332,-7.59579 C 163.01059,77.003766 140.2413,45.311515 140.2413,3.4607303 L 118.1718,0 C 99.917485,29.358407 93.604826,65.50455 90,114 Z"
                     id="Shirt" />
                  <path
                     style="fill:#ff4133"
                     inkscape:connector-curvature="0"
                     d="M 82.368755,84.23317 C 66.771381,112.36783 53.660945,132.62344 43.037445,145 L 27,141.85882 C 37.330593,77.790672 67.246611,30.504399 116.74805,0 H 117 h 8.4864 c 19.81252,67.536948 25.27448,112.53695 16.38588,135 H 73 c 1.089628,-16.43655 4.583396,-33.8188 9.368756,-50.766834 z"
                     id="Coat-Front" />
                </g>
              </g>
            </g>
          </g>
        </g>
      </g>
    </g>
  </g>
</svg>
